<svg version="1.1" xmlns="http://www.w3.org/2000/svg" viewBox="0 0 943 433" width="943" height="433"><!-- svg-source:excalidraw --><metadata></metadata><defs><style class="style-fonts">
      </style></defs><rect x="0" y="0" width="943" height="433" fill="#ffffff"></rect><g transform="translate(325 10) rotate(0 150 12.5)"><text x="150" y="17.3603515625" font-family="Helvetica, Segoe UI Emoji" font-size="18px" fill="#1e1e1e" text-anchor="middle" style="white-space: pre;" direction="ltr" dominant-baseline="alphabetic">10-Week Implementation Roadmap</text></g><g transform="translate(325 32) rotate(0 150 8)"><text x="150" y="10.97021484375" font-family="Helvetica, Segoe UI Emoji" font-size="11px" fill="#6b7280" text-anchor="middle" style="white-space: pre;" direction="ltr" dominant-baseline="alphabetic">7-Week Build + 3-Week Pilot Measurement</text></g><g transform="translate(10 55) rotate(0 25 6)"><text x="0" y="8.16015625" font-family="Helvetica, Segoe UI Emoji" font-size="8px" fill="#dc2626" text-anchor="start" style="white-space: pre;" direction="ltr" dominant-baseline="alphabetic">M0: Kickoff</text></g><g stroke-linecap="round"><g transform="translate(25 68) rotate(0 0 11)"><path d="M0 0 C0 4.4, 0 8.8, 0 22" stroke="#dc2626" stroke-width="1.5" fill="none" stroke-dasharray="8 9"></path></g></g><mask></mask><g stroke-linecap="round" transform="translate(20 88) rotate(0 5 5)"><path d="M10 5 C10 5.29, 9.97 5.58, 9.92 5.87 C9.87 6.15, 9.8 6.44, 9.7 6.71 C9.6 6.98, 9.47 7.25, 9.33 7.5 C9.19 7.75, 9.02 7.99, 8.83 8.21 C8.64 8.44, 8.44 8.64, 8.21 8.83 C7.99 9.02, 7.75 9.19, 7.5 9.33 C7.25 9.47, 6.98 9.6, 6.71 9.7 C6.44 9.8, 6.15 9.87, 5.87 9.92 C5.58 9.97, 5.29 10, 5 10 C4.71 10, 4.42 9.97, 4.13 9.92 C3.85 9.87, 3.56 9.8, 3.29 9.7 C3.02 9.6, 2.75 9.47, 2.5 9.33 C2.25 9.19, 2.01 9.02, 1.79 8.83 C1.56 8.64, 1.36 8.44, 1.17 8.21 C0.98 7.99, 0.81 7.75, 0.67 7.5 C0.53 7.25, 0.4 6.98, 0.3 6.71 C0.2 6.44, 0.13 6.15, 0.08 5.87 C0.03 5.58, 0 5.29, 0 5 C0 4.71, 0.03 4.42, 0.08 4.13 C0.13 3.85, 0.2 3.56, 0.3 3.29 C0.4 3.02, 0.53 2.75, 0.67 2.5 C0.81 2.25, 0.98 2.01, 1.17 1.79 C1.36 1.56, 1.56 1.36, 1.79 1.17 C2.01 0.98, 2.25 0.81, 2.5 0.67 C2.75 0.53, 3.02 0.4, 3.29 0.3 C3.56 0.2, 3.85 0.13, 4.13 0.08 C4.42 0.03, 4.71 0, 5 0 C5.29 0, 5.58 0.03, 5.87 0.08 C6.15 0.13, 6.44 0.2, 6.71 0.3 C6.98 0.4, 7.25 0.53, 7.5 0.67 C7.75 0.81, 7.99 0.98, 8.21 1.17 C8.44 1.36, 8.64 1.56, 8.83 1.79 C9.02 2.01, 9.19 2.25, 9.33 2.5 C9.47 2.75, 9.6 3.02, 9.7 3.29 C9.8 3.56, 9.87 3.85, 9.92 4.13 C9.97 4.42, 9.99 4.86, 10 5 C10.01 5.14, 10.01 4.86, 10 5" stroke="none" stroke-width="0" fill="#dc2626"></path><path d="M10 5 C10 5.29, 9.97 5.58, 9.92 5.87 C9.87 6.15, 9.8 6.44, 9.7 6.71 C9.6 6.98, 9.47 7.25, 9.33 7.5 C9.19 7.75, 9.02 7.99, 8.83 8.21 C8.64 8.44, 8.44 8.64, 8.21 8.83 C7.99 9.02, 7.75 9.19, 7.5 9.33 C7.25 9.47, 6.98 9.6, 6.71 9.7 C6.44 9.8, 6.15 9.87, 5.87 9.92 C5.58 9.97, 5.29 10, 5 10 C4.71 10, 4.42 9.97, 4.13 9.92 C3.85 9.87, 3.56 9.8, 3.29 9.7 C3.02 9.6, 2.75 9.47, 2.5 9.33 C2.25 9.19, 2.01 9.02, 1.79 8.83 C1.56 8.64, 1.36 8.44, 1.17 8.21 C0.98 7.99, 0.81 7.75, 0.67 7.5 C0.53 7.25, 0.4 6.98, 0.3 6.71 C0.2 6.44, 0.13 6.15, 0.08 5.87 C0.03 5.58, 0 5.29, 0 5 C0 4.71, 0.03 4.42, 0.08 4.13 C0.13 3.85, 0.2 3.56, 0.3 3.29 C0.4 3.02, 0.53 2.75, 0.67 2.5 C0.81 2.25, 0.98 2.01, 1.17 1.79 C1.36 1.56, 1.56 1.36, 1.79 1.17 C2.01 0.98, 2.25 0.81, 2.5 0.67 C2.75 0.53, 3.02 0.4, 3.29 0.3 C3.56 0.2, 3.85 0.13, 4.13 0.08 C4.42 0.03, 4.71 0, 5 0 C5.29 0, 5.58 0.03, 5.87 0.08 C6.15 0.13, 6.44 0.2, 6.71 0.3 C6.98 0.4, 7.25 0.53, 7.5 0.67 C7.75 0.81, 7.99 0.98, 8.21 1.17 C8.44 1.36, 8.64 1.56, 8.83 1.79 C9.02 2.01, 9.19 2.25, 9.33 2.5 C9.47 2.75, 9.6 3.02, 9.7 3.29 C9.8 3.56, 9.87 3.85, 9.92 4.13 C9.97 4.42, 9.99 4.86, 10 5 C10.01 5.14, 10.01 4.86, 10 5" stroke="#dc2626" stroke-width="1" fill="none"></path></g><g transform="translate(175 55) rotate(0 40 6)"><text x="0" y="8.16015625" font-family="Helvetica, Segoe UI Emoji" font-size="8px" fill="#dc2626" text-anchor="start" style="white-space: pre;" direction="ltr" dominant-baseline="alphabetic">M1: Data Pipeline</text></g><g stroke-linecap="round"><g transform="translate(205 68) rotate(0 0 11)"><path d="M0 0 C0 4.4, 0 8.8, 0 22" stroke="#dc2626" stroke-width="1.5" fill="none" stroke-dasharray="8 9"></path></g></g><mask></mask><g stroke-linecap="round" transform="translate(200 88) rotate(0 5 5)"><path d="M10 5 C10 5.29, 9.97 5.58, 9.92 5.87 C9.87 6.15, 9.8 6.44, 9.7 6.71 C9.6 6.98, 9.47 7.25, 9.33 7.5 C9.19 7.75, 9.02 7.99, 8.83 8.21 C8.64 8.44, 8.44 8.64, 8.21 8.83 C7.99 9.02, 7.75 9.19, 7.5 9.33 C7.25 9.47, 6.98 9.6, 6.71 9.7 C6.44 9.8, 6.15 9.87, 5.87 9.92 C5.58 9.97, 5.29 10, 5 10 C4.71 10, 4.42 9.97, 4.13 9.92 C3.85 9.87, 3.56 9.8, 3.29 9.7 C3.02 9.6, 2.75 9.47, 2.5 9.33 C2.25 9.19, 2.01 9.02, 1.79 8.83 C1.56 8.64, 1.36 8.44, 1.17 8.21 C0.98 7.99, 0.81 7.75, 0.67 7.5 C0.53 7.25, 0.4 6.98, 0.3 6.71 C0.2 6.44, 0.13 6.15, 0.08 5.87 C0.03 5.58, 0 5.29, 0 5 C0 4.71, 0.03 4.42, 0.08 4.13 C0.13 3.85, 0.2 3.56, 0.3 3.29 C0.4 3.02, 0.53 2.75, 0.67 2.5 C0.81 2.25, 0.98 2.01, 1.17 1.79 C1.36 1.56, 1.56 1.36, 1.79 1.17 C2.01 0.98, 2.25 0.81, 2.5 0.67 C2.75 0.53, 3.02 0.4, 3.29 0.3 C3.56 0.2, 3.85 0.13, 4.13 0.08 C4.42 0.03, 4.71 0, 5 0 C5.29 0, 5.58 0.03, 5.87 0.08 C6.15 0.13, 6.44 0.2, 6.71 0.3 C6.98 0.4, 7.25 0.53, 7.5 0.67 C7.75 0.81, 7.99 0.98, 8.21 1.17 C8.44 1.36, 8.64 1.56, 8.83 1.79 C9.02 2.01, 9.19 2.25, 9.33 2.5 C9.47 2.75, 9.6 3.02, 9.7 3.29 C9.8 3.56, 9.87 3.85, 9.92 4.13 C9.97 4.42, 9.99 4.86, 10 5 C10.01 5.14, 10.01 4.86, 10 5" stroke="none" stroke-width="0" fill="#dc2626"></path><path d="M10 5 C10 5.29, 9.97 5.58, 9.92 5.87 C9.87 6.15, 9.8 6.44, 9.7 6.71 C9.6 6.98, 9.47 7.25, 9.33 7.5 C9.19 7.75, 9.02 7.99, 8.83 8.21 C8.64 8.44, 8.44 8.64, 8.21 8.83 C7.99 9.02, 7.75 9.19, 7.5 9.33 C7.25 9.47, 6.98 9.6, 6.71 9.7 C6.44 9.8, 6.15 9.87, 5.87 9.92 C5.58 9.97, 5.29 10, 5 10 C4.71 10, 4.42 9.97, 4.13 9.92 C3.85 9.87, 3.56 9.8, 3.29 9.7 C3.02 9.6, 2.75 9.47, 2.5 9.33 C2.25 9.19, 2.01 9.02, 1.79 8.83 C1.56 8.64, 1.36 8.44, 1.17 8.21 C0.98 7.99, 0.81 7.75, 0.67 7.5 C0.53 7.25, 0.4 6.98, 0.3 6.71 C0.2 6.44, 0.13 6.15, 0.08 5.87 C0.03 5.58, 0 5.29, 0 5 C0 4.71, 0.03 4.42, 0.08 4.13 C0.13 3.85, 0.2 3.56, 0.3 3.29 C0.4 3.02, 0.53 2.75, 0.67 2.5 C0.81 2.25, 0.98 2.01, 1.17 1.79 C1.36 1.56, 1.56 1.36, 1.79 1.17 C2.01 0.98, 2.25 0.81, 2.5 0.67 C2.75 0.53, 3.02 0.4, 3.29 0.3 C3.56 0.2, 3.85 0.13, 4.13 0.08 C4.42 0.03, 4.71 0, 5 0 C5.29 0, 5.58 0.03, 5.87 0.08 C6.15 0.13, 6.44 0.2, 6.71 0.3 C6.98 0.4, 7.25 0.53, 7.5 0.67 C7.75 0.81, 7.99 0.98, 8.21 1.17 C8.44 1.36, 8.64 1.56, 8.83 1.79 C9.02 2.01, 9.19 2.25, 9.33 2.5 C9.47 2.75, 9.6 3.02, 9.7 3.29 C9.8 3.56, 9.87 3.85, 9.92 4.13 C9.97 4.42, 9.99 4.86, 10 5 C10.01 5.14, 10.01 4.86, 10 5" stroke="#dc2626" stroke-width="1" fill="none"></path></g><g transform="translate(355 55) rotate(0 35 6)"><text x="0" y="8.16015625" font-family="Helvetica, Segoe UI Emoji" font-size="8px" fill="#dc2626" text-anchor="start" style="white-space: pre;" direction="ltr" dominant-baseline="alphabetic">M2: Agent Demo</text></g><g stroke-linecap="round"><g transform="translate(385 68) rotate(0 0 11)"><path d="M0 0 C0 4.4, 0 8.8, 0 22" stroke="#dc2626" stroke-width="1.5" fill="none" stroke-dasharray="8 9"></path></g></g><mask></mask><g stroke-linecap="round" transform="translate(380 88) rotate(0 5 5)"><path d="M10 5 C10 5.29, 9.97 5.58, 9.92 5.87 C9.87 6.15, 9.8 6.44, 9.7 6.71 C9.6 6.98, 9.47 7.25, 9.33 7.5 C9.19 7.75, 9.02 7.99, 8.83 8.21 C8.64 8.44, 8.44 8.64, 8.21 8.83 C7.99 9.02, 7.75 9.19, 7.5 9.33 C7.25 9.47, 6.98 9.6, 6.71 9.7 C6.44 9.8, 6.15 9.87, 5.87 9.92 C5.58 9.97, 5.29 10, 5 10 C4.71 10, 4.42 9.97, 4.13 9.92 C3.85 9.87, 3.56 9.8, 3.29 9.7 C3.02 9.6, 2.75 9.47, 2.5 9.33 C2.25 9.19, 2.01 9.02, 1.79 8.83 C1.56 8.64, 1.36 8.44, 1.17 8.21 C0.98 7.99, 0.81 7.75, 0.67 7.5 C0.53 7.25, 0.4 6.98, 0.3 6.71 C0.2 6.44, 0.13 6.15, 0.08 5.87 C0.03 5.58, 0 5.29, 0 5 C0 4.71, 0.03 4.42, 0.08 4.13 C0.13 3.85, 0.2 3.56, 0.3 3.29 C0.4 3.02, 0.53 2.75, 0.67 2.5 C0.81 2.25, 0.98 2.01, 1.17 1.79 C1.36 1.56, 1.56 1.36, 1.79 1.17 C2.01 0.98, 2.25 0.81, 2.5 0.67 C2.75 0.53, 3.02 0.4, 3.29 0.3 C3.56 0.2, 3.85 0.13, 4.13 0.08 C4.42 0.03, 4.71 0, 5 0 C5.29 0, 5.58 0.03, 5.87 0.08 C6.15 0.13, 6.44 0.2, 6.71 0.3 C6.98 0.4, 7.25 0.53, 7.5 0.67 C7.75 0.81, 7.99 0.98, 8.21 1.17 C8.44 1.36, 8.64 1.56, 8.83 1.79 C9.02 2.01, 9.19 2.25, 9.33 2.5 C9.47 2.75, 9.6 3.02, 9.7 3.29 C9.8 3.56, 9.87 3.85, 9.92 4.13 C9.97 4.42, 9.99 4.86, 10 5 C10.01 5.14, 10.01 4.86, 10 5" stroke="none" stroke-width="0" fill="#dc2626"></path><path d="M10 5 C10 5.29, 9.97 5.58, 9.92 5.87 C9.87 6.15, 9.8 6.44, 9.7 6.71 C9.6 6.98, 9.47 7.25, 9.33 7.5 C9.19 7.75, 9.02 7.99, 8.83 8.21 C8.64 8.44, 8.44 8.64, 8.21 8.83 C7.99 9.02, 7.75 9.19, 7.5 9.33 C7.25 9.47, 6.98 9.6, 6.71 9.7 C6.44 9.8, 6.15 9.87, 5.87 9.92 C5.58 9.97, 5.29 10, 5 10 C4.71 10, 4.42 9.97, 4.13 9.92 C3.85 9.87, 3.56 9.8, 3.29 9.7 C3.02 9.6, 2.75 9.47, 2.5 9.33 C2.25 9.19, 2.01 9.02, 1.79 8.83 C1.56 8.64, 1.36 8.44, 1.17 8.21 C0.98 7.99, 0.81 7.75, 0.67 7.5 C0.53 7.25, 0.4 6.98, 0.3 6.71 C0.2 6.44, 0.13 6.15, 0.08 5.87 C0.03 5.58, 0 5.29, 0 5 C0 4.71, 0.03 4.42, 0.08 4.13 C0.13 3.85, 0.2 3.56, 0.3 3.29 C0.4 3.02, 0.53 2.75, 0.67 2.5 C0.81 2.25, 0.98 2.01, 1.17 1.79 C1.36 1.56, 1.56 1.36, 1.79 1.17 C2.01 0.98, 2.25 0.81, 2.5 0.67 C2.75 0.53, 3.02 0.4, 3.29 0.3 C3.56 0.2, 3.85 0.13, 4.13 0.08 C4.42 0.03, 4.71 0, 5 0 C5.29 0, 5.58 0.03, 5.87 0.08 C6.15 0.13, 6.44 0.2, 6.71 0.3 C6.98 0.4, 7.25 0.53, 7.5 0.67 C7.75 0.81, 7.99 0.98, 8.21 1.17 C8.44 1.36, 8.64 1.56, 8.83 1.79 C9.02 2.01, 9.19 2.25, 9.33 2.5 C9.47 2.75, 9.6 3.02, 9.7 3.29 C9.8 3.56, 9.87 3.85, 9.92 4.13 C9.97 4.42, 9.99 4.86, 10 5 C10.01 5.14, 10.01 4.86, 10 5" stroke="#dc2626" stroke-width="1" fill="none"></path></g><g transform="translate(530 55) rotate(0 40 6)"><text x="0" y="8.16015625" font-family="Helvetica, Segoe UI Emoji" font-size="8px" fill="#dc2626" text-anchor="start" style="white-space: pre;" direction="ltr" dominant-baseline="alphabetic">M3: Measurement</text></g><g stroke-linecap="round"><g transform="translate(565 68) rotate(0 0 11)"><path d="M0 0 C0 4.4, 0 8.8, 0 22" stroke="#dc2626" stroke-width="1.5" fill="none" stroke-dasharray="8 9"></path></g></g><mask></mask><g stroke-linecap="round" transform="translate(560 88) rotate(0 5 5)"><path d="M10 5 C10 5.29, 9.97 5.58, 9.92 5.87 C9.87 6.15, 9.8 6.44, 9.7 6.71 C9.6 6.98, 9.47 7.25, 9.33 7.5 C9.19 7.75, 9.02 7.99, 8.83 8.21 C8.64 8.44, 8.44 8.64, 8.21 8.83 C7.99 9.02, 7.75 9.19, 7.5 9.33 C7.25 9.47, 6.98 9.6, 6.71 9.7 C6.44 9.8, 6.15 9.87, 5.87 9.92 C5.58 9.97, 5.29 10, 5 10 C4.71 10, 4.42 9.97, 4.13 9.92 C3.85 9.87, 3.56 9.8, 3.29 9.7 C3.02 9.6, 2.75 9.47, 2.5 9.33 C2.25 9.19, 2.01 9.02, 1.79 8.83 C1.56 8.64, 1.36 8.44, 1.17 8.21 C0.98 7.99, 0.81 7.75, 0.67 7.5 C0.53 7.25, 0.4 6.98, 0.3 6.71 C0.2 6.44, 0.13 6.15, 0.08 5.87 C0.03 5.58, 0 5.29, 0 5 C0 4.71, 0.03 4.42, 0.08 4.13 C0.13 3.85, 0.2 3.56, 0.3 3.29 C0.4 3.02, 0.53 2.75, 0.67 2.5 C0.81 2.25, 0.98 2.01, 1.17 1.79 C1.36 1.56, 1.56 1.36, 1.79 1.17 C2.01 0.98, 2.25 0.81, 2.5 0.67 C2.75 0.53, 3.02 0.4, 3.29 0.3 C3.56 0.2, 3.85 0.13, 4.13 0.08 C4.42 0.03, 4.71 0, 5 0 C5.29 0, 5.58 0.03, 5.87 0.08 C6.15 0.13, 6.44 0.2, 6.71 0.3 C6.98 0.4, 7.25 0.53, 7.5 0.67 C7.75 0.81, 7.99 0.98, 8.21 1.17 C8.44 1.36, 8.64 1.56, 8.83 1.79 C9.02 2.01, 9.19 2.25, 9.33 2.5 C9.47 2.75, 9.6 3.02, 9.7 3.29 C9.8 3.56, 9.87 3.85, 9.92 4.13 C9.97 4.42, 9.99 4.86, 10 5 C10.01 5.14, 10.01 4.86, 10 5" stroke="none" stroke-width="0" fill="#dc2626"></path><path d="M10 5 C10 5.29, 9.97 5.58, 9.92 5.87 C9.87 6.15, 9.8 6.44, 9.7 6.71 C9.6 6.98, 9.47 7.25, 9.33 7.5 C9.19 7.75, 9.02 7.99, 8.83 8.21 C8.64 8.44, 8.44 8.64, 8.21 8.83 C7.99 9.02, 7.75 9.19, 7.5 9.33 C7.25 9.47, 6.98 9.6, 6.71 9.7 C6.44 9.8, 6.15 9.87, 5.87 9.92 C5.58 9.97, 5.29 10, 5 10 C4.71 10, 4.42 9.97, 4.13 9.92 C3.85 9.87, 3.56 9.8, 3.29 9.7 C3.02 9.6, 2.75 9.47, 2.5 9.33 C2.25 9.19, 2.01 9.02, 1.79 8.83 C1.56 8.64, 1.36 8.44, 1.17 8.21 C0.98 7.99, 0.81 7.75, 0.67 7.5 C0.53 7.25, 0.4 6.98, 0.3 6.71 C0.2 6.44, 0.13 6.15, 0.08 5.87 C0.03 5.58, 0 5.29, 0 5 C0 4.71, 0.03 4.42, 0.08 4.13 C0.13 3.85, 0.2 3.56, 0.3 3.29 C0.4 3.02, 0.53 2.75, 0.67 2.5 C0.81 2.25, 0.98 2.01, 1.17 1.79 C1.36 1.56, 1.56 1.36, 1.79 1.17 C2.01 0.98, 2.25 0.81, 2.5 0.67 C2.75 0.53, 3.02 0.4, 3.29 0.3 C3.56 0.2, 3.85 0.13, 4.13 0.08 C4.42 0.03, 4.71 0, 5 0 C5.29 0, 5.58 0.03, 5.87 0.08 C6.15 0.13, 6.44 0.2, 6.71 0.3 C6.98 0.4, 7.25 0.53, 7.5 0.67 C7.75 0.81, 7.99 0.98, 8.21 1.17 C8.44 1.36, 8.64 1.56, 8.83 1.79 C9.02 2.01, 9.19 2.25, 9.33 2.5 C9.47 2.75, 9.6 3.02, 9.7 3.29 C9.8 3.56, 9.87 3.85, 9.92 4.13 C9.97 4.42, 9.99 4.86, 10 5 C10.01 5.14, 10.01 4.86, 10 5" stroke="#dc2626" stroke-width="1" fill="none"></path></g><g transform="translate(625 55) rotate(0 40 6)"><text x="0" y="8.16015625" font-family="Helvetica, Segoe UI Emoji" font-size="8px" fill="#dc2626" text-anchor="start" style="white-space: pre;" direction="ltr" dominant-baseline="alphabetic">M4: System Ready</text></g><g stroke-linecap="round"><g transform="translate(655 68) rotate(0 0 11)"><path d="M0 0 C0 4.4, 0 8.8, 0 22" stroke="#dc2626" stroke-width="1.5" fill="none" stroke-dasharray="8 9"></path></g></g><mask></mask><g stroke-linecap="round" transform="translate(650 88) rotate(0 5 5)"><path d="M10 5 C10 5.29, 9.97 5.58, 9.92 5.87 C9.87 6.15, 9.8 6.44, 9.7 6.71 C9.6 6.98, 9.47 7.25, 9.33 7.5 C9.19 7.75, 9.02 7.99, 8.83 8.21 C8.64 8.44, 8.44 8.64, 8.21 8.83 C7.99 9.02, 7.75 9.19, 7.5 9.33 C7.25 9.47, 6.98 9.6, 6.71 9.7 C6.44 9.8, 6.15 9.87, 5.87 9.92 C5.58 9.97, 5.29 10, 5 10 C4.71 10, 4.42 9.97, 4.13 9.92 C3.85 9.87, 3.56 9.8, 3.29 9.7 C3.02 9.6, 2.75 9.47, 2.5 9.33 C2.25 9.19, 2.01 9.02, 1.79 8.83 C1.56 8.64, 1.36 8.44, 1.17 8.21 C0.98 7.99, 0.81 7.75, 0.67 7.5 C0.53 7.25, 0.4 6.98, 0.3 6.71 C0.2 6.44, 0.13 6.15, 0.08 5.87 C0.03 5.58, 0 5.29, 0 5 C0 4.71, 0.03 4.42, 0.08 4.13 C0.13 3.85, 0.2 3.56, 0.3 3.29 C0.4 3.02, 0.53 2.75, 0.67 2.5 C0.81 2.25, 0.98 2.01, 1.17 1.79 C1.36 1.56, 1.56 1.36, 1.79 1.17 C2.01 0.98, 2.25 0.81, 2.5 0.67 C2.75 0.53, 3.02 0.4, 3.29 0.3 C3.56 0.2, 3.85 0.13, 4.13 0.08 C4.42 0.03, 4.71 0, 5 0 C5.29 0, 5.58 0.03, 5.87 0.08 C6.15 0.13, 6.44 0.2, 6.71 0.3 C6.98 0.4, 7.25 0.53, 7.5 0.67 C7.75 0.81, 7.99 0.98, 8.21 1.17 C8.44 1.36, 8.64 1.56, 8.83 1.79 C9.02 2.01, 9.19 2.25, 9.33 2.5 C9.47 2.75, 9.6 3.02, 9.7 3.29 C9.8 3.56, 9.87 3.85, 9.92 4.13 C9.97 4.42, 9.99 4.86, 10 5 C10.01 5.14, 10.01 4.86, 10 5" stroke="none" stroke-width="0" fill="#dc2626"></path><path d="M10 5 C10 5.29, 9.97 5.58, 9.92 5.87 C9.87 6.15, 9.8 6.44, 9.7 6.71 C9.6 6.98, 9.47 7.25, 9.33 7.5 C9.19 7.75, 9.02 7.99, 8.83 8.21 C8.64 8.44, 8.44 8.64, 8.21 8.83 C7.99 9.02, 7.75 9.19, 7.5 9.33 C7.25 9.47, 6.98 9.6, 6.71 9.7 C6.44 9.8, 6.15 9.87, 5.87 9.92 C5.58 9.97, 5.29 10, 5 10 C4.71 10, 4.42 9.97, 4.13 9.92 C3.85 9.87, 3.56 9.8, 3.29 9.7 C3.02 9.6, 2.75 9.47, 2.5 9.33 C2.25 9.19, 2.01 9.02, 1.79 8.83 C1.56 8.64, 1.36 8.44, 1.17 8.21 C0.98 7.99, 0.81 7.75, 0.67 7.5 C0.53 7.25, 0.4 6.98, 0.3 6.71 C0.2 6.44, 0.13 6.15, 0.08 5.87 C0.03 5.58, 0 5.29, 0 5 C0 4.71, 0.03 4.42, 0.08 4.13 C0.13 3.85, 0.2 3.56, 0.3 3.29 C0.4 3.02, 0.53 2.75, 0.67 2.5 C0.81 2.25, 0.98 2.01, 1.17 1.79 C1.36 1.56, 1.56 1.36, 1.79 1.17 C2.01 0.98, 2.25 0.81, 2.5 0.67 C2.75 0.53, 3.02 0.4, 3.29 0.3 C3.56 0.2, 3.85 0.13, 4.13 0.08 C4.42 0.03, 4.71 0, 5 0 C5.29 0, 5.58 0.03, 5.87 0.08 C6.15 0.13, 6.44 0.2, 6.71 0.3 C6.98 0.4, 7.25 0.53, 7.5 0.67 C7.75 0.81, 7.99 0.98, 8.21 1.17 C8.44 1.36, 8.64 1.56, 8.83 1.79 C9.02 2.01, 9.19 2.25, 9.33 2.5 C9.47 2.75, 9.6 3.02, 9.7 3.29 C9.8 3.56, 9.87 3.85, 9.92 4.13 C9.97 4.42, 9.99 4.86, 10 5 C10.01 5.14, 10.01 4.86, 10 5" stroke="#dc2626" stroke-width="1" fill="none"></path></g><g transform="translate(870 55) rotate(0 30 6)"><text x="0" y="8.16015625" font-family="Helvetica, Segoe UI Emoji" font-size="8px" fill="#dc2626" text-anchor="start" style="white-space: pre;" direction="ltr" dominant-baseline="alphabetic">M5: Pilot Complete</text></g><g stroke-linecap="round"><g transform="translate(925 68) rotate(0 0 11)"><path d="M0 0 C0 4.4, 0 8.8, 0 22" stroke="#dc2626" stroke-width="1.5" fill="none" stroke-dasharray="8 9"></path></g></g><mask></mask><g stroke-linecap="round" transform="translate(920 88) rotate(0 5 5)"><path d="M10 5 C10 5.29, 9.97 5.58, 9.92 5.87 C9.87 6.15, 9.8 6.44, 9.7 6.71 C9.6 6.98, 9.47 7.25, 9.33 7.5 C9.19 7.75, 9.02 7.99, 8.83 8.21 C8.64 8.44, 8.44 8.64, 8.21 8.83 C7.99 9.02, 7.75 9.19, 7.5 9.33 C7.25 9.47, 6.98 9.6, 6.71 9.7 C6.44 9.8, 6.15 9.87, 5.87 9.92 C5.58 9.97, 5.29 10, 5 10 C4.71 10, 4.42 9.97, 4.13 9.92 C3.85 9.87, 3.56 9.8, 3.29 9.7 C3.02 9.6, 2.75 9.47, 2.5 9.33 C2.25 9.19, 2.01 9.02, 1.79 8.83 C1.56 8.64, 1.36 8.44, 1.17 8.21 C0.98 7.99, 0.81 7.75, 0.67 7.5 C0.53 7.25, 0.4 6.98, 0.3 6.71 C0.2 6.44, 0.13 6.15, 0.08 5.87 C0.03 5.58, 0 5.29, 0 5 C0 4.71, 0.03 4.42, 0.08 4.13 C0.13 3.85, 0.2 3.56, 0.3 3.29 C0.4 3.02, 0.53 2.75, 0.67 2.5 C0.81 2.25, 0.98 2.01, 1.17 1.79 C1.36 1.56, 1.56 1.36, 1.79 1.17 C2.01 0.98, 2.25 0.81, 2.5 0.67 C2.75 0.53, 3.02 0.4, 3.29 0.3 C3.56 0.2, 3.85 0.13, 4.13 0.08 C4.42 0.03, 4.71 0, 5 0 C5.29 0, 5.58 0.03, 5.87 0.08 C6.15 0.13, 6.44 0.2, 6.71 0.3 C6.98 0.4, 7.25 0.53, 7.5 0.67 C7.75 0.81, 7.99 0.98, 8.21 1.17 C8.44 1.36, 8.64 1.56, 8.83 1.79 C9.02 2.01, 9.19 2.25, 9.33 2.5 C9.47 2.75, 9.6 3.02, 9.7 3.29 C9.8 3.56, 9.87 3.85, 9.92 4.13 C9.97 4.42, 9.99 4.86, 10 5 C10.01 5.14, 10.01 4.86, 10 5" stroke="none" stroke-width="0" fill="#dc2626"></path><path d="M10 5 C10 5.29, 9.97 5.58, 9.92 5.87 C9.87 6.15, 9.8 6.44, 9.7 6.71 C9.6 6.98, 9.47 7.25, 9.33 7.5 C9.19 7.75, 9.02 7.99, 8.83 8.21 C8.64 8.44, 8.44 8.64, 8.21 8.83 C7.99 9.02, 7.75 9.19, 7.5 9.33 C7.25 9.47, 6.98 9.6, 6.71 9.7 C6.44 9.8, 6.15 9.87, 5.87 9.92 C5.58 9.97, 5.29 10, 5 10 C4.71 10, 4.42 9.97, 4.13 9.92 C3.85 9.87, 3.56 9.8, 3.29 9.7 C3.02 9.6, 2.75 9.47, 2.5 9.33 C2.25 9.19, 2.01 9.02, 1.79 8.83 C1.56 8.64, 1.36 8.44, 1.17 8.21 C0.98 7.99, 0.81 7.75, 0.67 7.5 C0.53 7.25, 0.4 6.98, 0.3 6.71 C0.2 6.44, 0.13 6.15, 0.08 5.87 C0.03 5.58, 0 5.29, 0 5 C0 4.71, 0.03 4.42, 0.08 4.13 C0.13 3.85, 0.2 3.56, 0.3 3.29 C0.4 3.02, 0.53 2.75, 0.67 2.5 C0.81 2.25, 0.98 2.01, 1.17 1.79 C1.36 1.56, 1.56 1.36, 1.79 1.17 C2.01 0.98, 2.25 0.81, 2.5 0.67 C2.75 0.53, 3.02 0.4, 3.29 0.3 C3.56 0.2, 3.85 0.13, 4.13 0.08 C4.42 0.03, 4.71 0, 5 0 C5.29 0, 5.58 0.03, 5.87 0.08 C6.15 0.13, 6.44 0.2, 6.71 0.3 C6.98 0.4, 7.25 0.53, 7.5 0.67 C7.75 0.81, 7.99 0.98, 8.21 1.17 C8.44 1.36, 8.64 1.56, 8.83 1.79 C9.02 2.01, 9.19 2.25, 9.33 2.5 C9.47 2.75, 9.6 3.02, 9.7 3.29 C9.8 3.56, 9.87 3.85, 9.92 4.13 C9.97 4.42, 9.99 4.86, 10 5 C10.01 5.14, 10.01 4.86, 10 5" stroke="#dc2626" stroke-width="1" fill="none"></path></g><g stroke-linecap="round"><g transform="translate(25 110) rotate(0 450 0)"><path d="M0 0 C180 0, 360.01 0, 900 0 M0 0 C244.79 0, 489.59 0, 900 0" stroke="#6b7280" stroke-width="2" fill="none"></path></g></g><mask></mask><g stroke-linecap="round"><g transform="translate(25 105) rotate(0 0 5)"><path d="M0 0 C0 2, 0 4, 0 10 M0 0 C0 2.72, 0 5.44, 0 10" stroke="#6b7280" stroke-width="2" fill="none"></path></g></g><mask></mask><g transform="translate(20 118) rotate(0 5 7)"><text x="5" y="9.7001953125" font-family="Helvetica, Segoe UI Emoji" font-size="10px" fill="#6b7280" text-anchor="middle" style="white-space: pre;" direction="ltr" dominant-baseline="alphabetic">0</text></g><g stroke-linecap="round"><g transform="translate(115 105) rotate(0 0 5)"><path d="M0 0 C0 2, 0 4, 0 10 M0 0 C0 2.72, 0 5.44, 0 10" stroke="#6b7280" stroke-width="2" fill="none"></path></g></g><mask></mask><g transform="translate(110 118) rotate(0 5 7)"><text x="5" y="9.7001953125" font-family="Helvetica, Segoe UI Emoji" font-size="10px" fill="#6b7280" text-anchor="middle" style="white-space: pre;" direction="ltr" dominant-baseline="alphabetic">1</text></g><g stroke-linecap="round"><g transform="translate(205 105) rotate(0 0 5)"><path d="M0 0 C0 2, 0 4, 0 10 M0 0 C0 2.72, 0 5.44, 0 10" stroke="#6b7280" stroke-width="2" fill="none"></path></g></g><mask></mask><g transform="translate(200 118) rotate(0 5 7)"><text x="5" y="9.7001953125" font-family="Helvetica, Segoe UI Emoji" font-size="10px" fill="#6b7280" text-anchor="middle" style="white-space: pre;" direction="ltr" dominant-baseline="alphabetic">2</text></g><g stroke-linecap="round"><g transform="translate(295 105) rotate(0 0 5)"><path d="M0 0 C0 2, 0 4, 0 10 M0 0 C0 2.72, 0 5.44, 0 10" stroke="#6b7280" stroke-width="2" fill="none"></path></g></g><mask></mask><g transform="translate(290 118) rotate(0 5 7)"><text x="5" y="9.7001953125" font-family="Helvetica, Segoe UI Emoji" font-size="10px" fill="#6b7280" text-anchor="middle" style="white-space: pre;" direction="ltr" dominant-baseline="alphabetic">3</text></g><g stroke-linecap="round"><g transform="translate(385 105) rotate(0 0 5)"><path d="M0 0 C0 2, 0 4, 0 10 M0 0 C0 2.72, 0 5.44, 0 10" stroke="#6b7280" stroke-width="2" fill="none"></path></g></g><mask></mask><g transform="translate(380 118) rotate(0 5 7)"><text x="5" y="9.7001953125" font-family="Helvetica, Segoe UI Emoji" font-size="10px" fill="#6b7280" text-anchor="middle" style="white-space: pre;" direction="ltr" dominant-baseline="alphabetic">4</text></g><g stroke-linecap="round"><g transform="translate(475 105) rotate(0 0 5)"><path d="M0 0 C0 2, 0 4, 0 10 M0 0 C0 2.72, 0 5.44, 0 10" stroke="#6b7280" stroke-width="2" fill="none"></path></g></g><mask></mask><g transform="translate(470 118) rotate(0 5 7)"><text x="5" y="9.7001953125" font-family="Helvetica, Segoe UI Emoji" font-size="10px" fill="#6b7280" text-anchor="middle" style="white-space: pre;" direction="ltr" dominant-baseline="alphabetic">5</text></g><g stroke-linecap="round"><g transform="translate(565 105) rotate(0 0 5)"><path d="M0 0 C0 2, 0 4, 0 10 M0 0 C0 2.72, 0 5.44, 0 10" stroke="#6b7280" stroke-width="2" fill="none"></path></g></g><mask></mask><g transform="translate(560 118) rotate(0 5 7)"><text x="5" y="9.7001953125" font-family="Helvetica, Segoe UI Emoji" font-size="10px" fill="#6b7280" text-anchor="middle" style="white-space: pre;" direction="ltr" dominant-baseline="alphabetic">6</text></g><g stroke-linecap="round"><g transform="translate(655 105) rotate(0 0 5)"><path d="M0 0 C0 2, 0 4, 0 10 M0 0 C0 2.72, 0 5.44, 0 10" stroke="#6b7280" stroke-width="2" fill="none"></path></g></g><mask></mask><g transform="translate(650 118) rotate(0 5 7)"><text x="5" y="9.7001953125" font-family="Helvetica, Segoe UI Emoji" font-size="10px" fill="#6b7280" text-anchor="middle" style="white-space: pre;" direction="ltr" dominant-baseline="alphabetic">7</text></g><g stroke-linecap="round"><g transform="translate(745 105) rotate(0 0 5)"><path d="M0 0 C0 2, 0 4, 0 10 M0 0 C0 2.72, 0 5.44, 0 10" stroke="#6b7280" stroke-width="2" fill="none"></path></g></g><mask></mask><g transform="translate(740 118) rotate(0 5 7)"><text x="5" y="9.7001953125" font-family="Helvetica, Segoe UI Emoji" font-size="10px" fill="#6b7280" text-anchor="middle" style="white-space: pre;" direction="ltr" dominant-baseline="alphabetic">8</text></g><g stroke-linecap="round"><g transform="translate(835 105) rotate(0 0 5)"><path d="M0 0 C0 2, 0 4, 0 10 M0 0 C0 2.72, 0 5.44, 0 10" stroke="#6b7280" stroke-width="2" fill="none"></path></g></g><mask></mask><g transform="translate(830 118) rotate(0 5 7)"><text x="5" y="9.7001953125" font-family="Helvetica, Segoe UI Emoji" font-size="10px" fill="#6b7280" text-anchor="middle" style="white-space: pre;" direction="ltr" dominant-baseline="alphabetic">9</text></g><g stroke-linecap="round"><g transform="translate(925 105) rotate(0 0 5)"><path d="M0 0 C0 2, 0 4, 0 10 M0 0 C0 2.72, 0 5.44, 0 10" stroke="#6b7280" stroke-width="2" fill="none"></path></g></g><mask></mask><g transform="translate(917 118) rotate(0 8 7)"><text x="8" y="9.7001953125" font-family="Helvetica, Segoe UI Emoji" font-size="10px" fill="#6b7280" text-anchor="middle" style="white-space: pre;" direction="ltr" dominant-baseline="alphabetic">10</text></g><g stroke-linecap="round" transform="translate(25 138) rotate(0 315 9)"><path d="M0 0 L630 0 L630 18 L0 18" stroke="none" stroke-width="0" fill="#dbeafe"></path><path d="M0 0 C126 0, 252.01 0, 630 0 M0 0 C171.36 0, 342.71 0, 630 0 M630 0 C630 4.23, 630 8.46, 630 18 M630 0 C630 6.76, 630 13.51, 630 18 M630 18 C402.25 18, 174.49 18, 0 18 M630 18 C478.23 18, 326.45 18, 0 18 M0 18 C0 11.87, 0 5.74, 0 0 M0 18 C0 11.67, 0 5.35, 0 0" stroke="#3b82f6" stroke-width="1" fill="none"></path></g><g transform="translate(275 140) rotate(0 60 7)"><text x="60" y="9.7001953125" font-family="Helvetica, Segoe UI Emoji" font-size="10px" fill="#1d4ed8" text-anchor="middle" style="white-space: pre;" direction="ltr" dominant-baseline="alphabetic">BUILD PHASE (Wks 0-7)</text></g><g stroke-linecap="round" transform="translate(655 138) rotate(0 135 9)"><path d="M0 0 L270 0 L270 18 L0 18" stroke="none" stroke-width="0" fill="#dcfce7"></path><path d="M0 0 C54 0, 108 0, 270 0 M0 0 C73.44 0, 146.88 0, 270 0 M270 0 C270 4.23, 270 8.46, 270 18 M270 0 C270 6.76, 270 13.51, 270 18 M270 18 C172.39 18, 74.78 18, 0 18 M270 18 C204.95 18, 139.91 18, 0 18 M0 18 C0 11.87, 0 5.74, 0 0 M0 18 C0 11.67, 0 5.35, 0 0" stroke="#22c55e" stroke-width="1" fill="none"></path></g><g transform="translate(720 140) rotate(0 70 7)"><text x="70" y="9.7001953125" font-family="Helvetica, Segoe UI Emoji" font-size="10px" fill="#15803d" text-anchor="middle" style="white-space: pre;" direction="ltr" dominant-baseline="alphabetic">PILOT MEASUREMENT (Wks 7-10)</text></g><g stroke-linecap="round" transform="translate(25 168) rotate(0 45 14)"><path d="M7 0 C23.72 0, 40.44 0, 83 0 C87.67 0, 90 2.33, 90 7 C90 11.55, 90 16.11, 90 21 C90 25.67, 87.67 28, 83 28 C57.51 28, 32.02 28, 7 28 C2.33 28, 0 25.67, 0 21 C0 17.59, 0 14.19, 0 7 C0 2.33, 2.33 0, 7 0" stroke="none" stroke-width="0" fill="#6366f1"></path><path d="M7 0 C22.2 0, 37.4 0, 83 0 M7 0 C27.67 0, 48.34 0, 83 0 M83 0 C87.67 0, 90 2.33, 90 7 M83 0 C87.67 0, 90 2.33, 90 7 M90 7 C90 10.05, 90 13.09, 90 21 M90 7 C90 12.45, 90 17.91, 90 21 M90 21 C90 25.67, 87.67 28, 83 28 M90 21 C90 25.67, 87.67 28, 83 28 M83 28 C66.61 28, 50.22 28, 7 28 M83 28 C66.6 28, 50.2 28, 7 28 M7 28 C2.33 28, 0 25.67, 0 21 M7 28 C2.33 28, 0 25.67, 0 21 M0 21 C0 16.98, 0 12.97, 0 7 M0 21 C0 17.13, 0 13.26, 0 7 M0 7 C0 2.33, 2.33 0, 7 0 M0 7 C0 2.33, 2.33 0, 7 0" stroke="#6366f1" stroke-width="1" fill="none"></path></g><g transform="translate(30 175) rotate(0 40 8)"><text x="0" y="10.43017578125" font-family="Helvetica, Segoe UI Emoji" font-size="9px" fill="#ffffff" text-anchor="start" style="white-space: pre;" direction="ltr" dominant-baseline="alphabetic">P0: Mobilization</text></g><g stroke-linecap="round" transform="translate(115 203) rotate(0 90 14)"><path d="M7 0 C43.52 0, 80.03 0, 173 0 C177.67 0, 180 2.33, 180 7 C180 11.55, 180 16.11, 180 21 C180 25.67, 177.67 28, 173 28 C117.32 28, 61.64 28, 7 28 C2.33 28, 0 25.67, 0 21 C0 17.59, 0 14.19, 0 7 C0 2.33, 2.33 0, 7 0" stroke="none" stroke-width="0" fill="#7c3aed"></path><path d="M7 0 C40.2 0, 73.4 0, 173 0 M7 0 C52.15 0, 97.3 0, 173 0 M173 0 C177.67 0, 180 2.33, 180 7 M173 0 C177.67 0, 180 2.33, 180 7 M180 7 C180 10.05, 180 13.09, 180 21 M180 7 C180 12.45, 180 17.91, 180 21 M180 21 C180 25.67, 177.67 28, 173 28 M180 21 C180 25.67, 177.67 28, 173 28 M173 28 C137.2 28, 101.4 28, 7 28 M173 28 C137.17 28, 101.35 28, 7 28 M7 28 C2.33 28, 0 25.67, 0 21 M7 28 C2.33 28, 0 25.67, 0 21 M0 21 C0 16.98, 0 12.97, 0 7 M0 21 C0 17.13, 0 13.26, 0 7 M0 7 C0 2.33, 2.33 0, 7 0 M0 7 C0 2.33, 2.33 0, 7 0" stroke="#7c3aed" stroke-width="1" fill="none"></path></g><g transform="translate(125 210) rotate(0 80 8)"><text x="0" y="10.43017578125" font-family="Helvetica, Segoe UI Emoji" font-size="9px" fill="#ffffff" text-anchor="start" style="white-space: pre;" direction="ltr" dominant-baseline="alphabetic">P1: Data Foundation (Wk 1-3)</text></g><g stroke-linecap="round" transform="translate(205 238) rotate(0 135 14)"><path d="M7 0 C63.32 0, 119.63 0, 263 0 C267.67 0, 270 2.33, 270 7 C270 11.55, 270 16.11, 270 21 C270 25.67, 267.67 28, 263 28 C177.13 28, 91.26 28, 7 28 C2.33 28, 0 25.67, 0 21 C0 17.59, 0 14.19, 0 7 C0 2.33, 2.33 0, 7 0" stroke="none" stroke-width="0" fill="#f59e0b"></path><path d="M7 0 C58.2 0, 109.4 0, 263 0 M7 0 C76.63 0, 146.26 0, 263 0 M263 0 C267.67 0, 270 2.33, 270 7 M263 0 C267.67 0, 270 2.33, 270 7 M270 7 C270 10.05, 270 13.09, 270 21 M270 7 C270 12.45, 270 17.91, 270 21 M270 21 C270 25.67, 267.67 28, 263 28 M270 21 C270 25.67, 267.67 28, 263 28 M263 28 C207.79 28, 152.58 28, 7 28 M263 28 C207.75 28, 152.5 28, 7 28 M7 28 C2.33 28, 0 25.67, 0 21 M7 28 C2.33 28, 0 25.67, 0 21 M0 21 C0 16.98, 0 12.97, 0 7 M0 21 C0 17.13, 0 13.26, 0 7 M0 7 C0 2.33, 2.33 0, 7 0 M0 7 C0 2.33, 2.33 0, 7 0" stroke="#f59e0b" stroke-width="1" fill="none"></path></g><g transform="translate(215 245) rotate(0 125 8)"><text x="0" y="10.43017578125" font-family="Helvetica, Segoe UI Emoji" font-size="9px" fill="#ffffff" text-anchor="start" style="white-space: pre;" direction="ltr" dominant-baseline="alphabetic">P2: Agent Core (Wk 2-5)</text></g><g stroke-linecap="round" transform="translate(385 273) rotate(0 90 14)"><path d="M7 0 C43.52 0, 80.03 0, 173 0 C177.67 0, 180 2.33, 180 7 C180 11.55, 180 16.11, 180 21 C180 25.67, 177.67 28, 173 28 C117.32 28, 61.64 28, 7 28 C2.33 28, 0 25.67, 0 21 C0 17.59, 0 14.19, 0 7 C0 2.33, 2.33 0, 7 0" stroke="none" stroke-width="0" fill="#10b981"></path><path d="M7 0 C40.2 0, 73.4 0, 173 0 M7 0 C52.15 0, 97.3 0, 173 0 M173 0 C177.67 0, 180 2.33, 180 7 M173 0 C177.67 0, 180 2.33, 180 7 M180 7 C180 10.05, 180 13.09, 180 21 M180 7 C180 12.45, 180 17.91, 180 21 M180 21 C180 25.67, 177.67 28, 173 28 M180 21 C180 25.67, 177.67 28, 173 28 M173 28 C137.2 28, 101.4 28, 7 28 M173 28 C137.17 28, 101.35 28, 7 28 M7 28 C2.33 28, 0 25.67, 0 21 M7 28 C2.33 28, 0 25.67, 0 21 M0 21 C0 16.98, 0 12.97, 0 7 M0 21 C0 17.13, 0 13.26, 0 7 M0 7 C0 2.33, 2.33 0, 7 0 M0 7 C0 2.33, 2.33 0, 7 0" stroke="#10b981" stroke-width="1" fill="none"></path></g><g transform="translate(395 280) rotate(0 80 8)"><text x="0" y="10.43017578125" font-family="Helvetica, Segoe UI Emoji" font-size="9px" fill="#ffffff" text-anchor="start" style="white-space: pre;" direction="ltr" dominant-baseline="alphabetic">P3: Measurement (Wk 4-6)</text></g><g stroke-linecap="round" transform="translate(475 308) rotate(0 90 14)"><path d="M7 0 C43.52 0, 80.03 0, 173 0 C177.67 0, 180 2.33, 180 7 C180 11.55, 180 16.11, 180 21 C180 25.67, 177.67 28, 173 28 C117.32 28, 61.64 28, 7 28 C2.33 28, 0 25.67, 0 21 C0 17.59, 0 14.19, 0 7 C0 2.33, 2.33 0, 7 0" stroke="none" stroke-width="0" fill="#0ea5e9"></path><path d="M7 0 C40.2 0, 73.4 0, 173 0 M7 0 C52.15 0, 97.3 0, 173 0 M173 0 C177.67 0, 180 2.33, 180 7 M173 0 C177.67 0, 180 2.33, 180 7 M180 7 C180 10.05, 180 13.09, 180 21 M180 7 C180 12.45, 180 17.91, 180 21 M180 21 C180 25.67, 177.67 28, 173 28 M180 21 C180 25.67, 177.67 28, 173 28 M173 28 C137.2 28, 101.4 28, 7 28 M173 28 C137.17 28, 101.35 28, 7 28 M7 28 C2.33 28, 0 25.67, 0 21 M7 28 C2.33 28, 0 25.67, 0 21 M0 21 C0 16.98, 0 12.97, 0 7 M0 21 C0 17.13, 0 13.26, 0 7 M0 7 C0 2.33, 2.33 0, 7 0 M0 7 C0 2.33, 2.33 0, 7 0" stroke="#0ea5e9" stroke-width="1" fill="none"></path></g><g transform="translate(485 315) rotate(0 80 8)"><text x="0" y="10.43017578125" font-family="Helvetica, Segoe UI Emoji" font-size="9px" fill="#ffffff" text-anchor="start" style="white-space: pre;" direction="ltr" dominant-baseline="alphabetic">P4: Integration &amp; Polish (Wk 5-7)</text></g><g stroke-linecap="round" transform="translate(655 343) rotate(0 135 14)"><path d="M7 0 C63.32 0, 119.63 0, 263 0 C267.67 0, 270 2.33, 270 7 C270 11.55, 270 16.11, 270 21 C270 25.67, 267.67 28, 263 28 C177.13 28, 91.26 28, 7 28 C2.33 28, 0 25.67, 0 21 C0 17.59, 0 14.19, 0 7 C0 2.33, 2.33 0, 7 0" stroke="none" stroke-width="0" fill="#ec4899"></path><path d="M7 0 C58.2 0, 109.4 0, 263 0 M7 0 C76.63 0, 146.26 0, 263 0 M263 0 C267.67 0, 270 2.33, 270 7 M263 0 C267.67 0, 270 2.33, 270 7 M270 7 C270 10.05, 270 13.09, 270 21 M270 7 C270 12.45, 270 17.91, 270 21 M270 21 C270 25.67, 267.67 28, 263 28 M270 21 C270 25.67, 267.67 28, 263 28 M263 28 C207.79 28, 152.58 28, 7 28 M263 28 C207.75 28, 152.5 28, 7 28 M7 28 C2.33 28, 0 25.67, 0 21 M7 28 C2.33 28, 0 25.67, 0 21 M0 21 C0 16.98, 0 12.97, 0 7 M0 21 C0 17.13, 0 13.26, 0 7 M0 7 C0 2.33, 2.33 0, 7 0 M0 7 C0 2.33, 2.33 0, 7 0" stroke="#ec4899" stroke-width="1" fill="none"></path></g><g transform="translate(665 350) rotate(0 125 8)"><text x="0" y="10.43017578125" font-family="Helvetica, Segoe UI Emoji" font-size="9px" fill="#ffffff" text-anchor="start" style="white-space: pre;" direction="ltr" dominant-baseline="alphabetic">P5: Pilot Execution (Wk 7-10)</text></g><g stroke-linecap="round" transform="translate(25 388) rotate(0 450 17.5)"><path d="M8.75 0 C202.89 0, 397.02 0, 891.25 0 C897.08 0, 900 2.92, 900 8.75 C900 14.44, 900 20.14, 900 26.25 C900 32.08, 897.08 35, 891.25 35 C595.24 35, 299.23 35, 8.75 35 C2.92 35, 0 32.08, 0 26.25 C0 21.99, 0 17.74, 0 8.75 C0 2.92, 2.92 0, 8.75 0" stroke="none" stroke-width="0" fill="#f9fafb"></path><path d="M8.75 0 C185.25 0, 361.76 0, 891.25 0 M8.75 0 C248.78 0, 488.82 0, 891.25 0 M891.25 0 C897.08 0, 900 2.92, 900 8.75 M891.25 0 C897.08 0, 900 2.92, 900 8.75 M900 8.75 C900 12.56, 900 16.36, 900 26.25 M900 8.75 C900 15.57, 900 22.38, 900 26.25 M900 26.25 C900 32.08, 897.08 35, 891.25 35 M900 26.25 C900 32.08, 897.08 35, 891.25 35 M891.25 35 C700.92 35, 510.59 35, 8.75 35 M891.25 35 C700.79 35, 510.33 35, 8.75 35 M8.75 35 C2.92 35, 0 32.08, 0 26.25 M8.75 35 C2.92 35, 0 32.08, 0 26.25 M0 26.25 C0 21.23, 0 16.21, 0 8.75 M0 26.25 C0 21.41, 0 16.58, 0 8.75 M0 8.75 C0 2.92, 2.92 0, 8.75 0 M0 8.75 C0 2.92, 2.92 0, 8.75 0" stroke="#6b7280" stroke-width="1" fill="none"></path></g><g stroke-linecap="round" transform="translate(40 398) rotate(0 6 6)"><path d="M0 0 L12 0 L12 12 L0 12" stroke="none" stroke-width="0" fill="#6366f1"></path><path d="M0 0 C2.4 0, 4.8 0, 12 0 M0 0 C3.26 0, 6.53 0, 12 0 M12 0 C12 2.82, 12 5.64, 12 12 M12 0 C12 4.5, 12 9.01, 12 12 M12 12 C7.66 12, 3.32 12, 0 12 M12 12 C9.11 12, 6.22 12, 0 12 M0 12 C0 7.91, 0 3.82, 0 0 M0 12 C0 7.78, 0 3.56, 0 0" stroke="#6366f1" stroke-width="1" fill="none"></path></g><g transform="translate(57 399) rotate(0 30 6)"><text x="0" y="8.16015625" font-family="Helvetica, Segoe UI Emoji" font-size="8px" fill="#1e1e1e" text-anchor="start" style="white-space: pre;" direction="ltr" dominant-baseline="alphabetic">Mobilization</text></g><g stroke-linecap="round" transform="translate(130 398) rotate(0 6 6)"><path d="M0 0 L12 0 L12 12 L0 12" stroke="none" stroke-width="0" fill="#7c3aed"></path><path d="M0 0 C2.4 0, 4.8 0, 12 0 M0 0 C3.26 0, 6.53 0, 12 0 M12 0 C12 2.82, 12 5.64, 12 12 M12 0 C12 4.5, 12 9.01, 12 12 M12 12 C7.66 12, 3.32 12, 0 12 M12 12 C9.11 12, 6.22 12, 0 12 M0 12 C0 7.91, 0 3.82, 0 0 M0 12 C0 7.78, 0 3.56, 0 0" stroke="#7c3aed" stroke-width="1" fill="none"></path></g><g transform="translate(147 399) rotate(0 35 6)"><text x="0" y="8.16015625" font-family="Helvetica, Segoe UI Emoji" font-size="8px" fill="#1e1e1e" text-anchor="start" style="white-space: pre;" direction="ltr" dominant-baseline="alphabetic">Data Foundation</text></g><g stroke-linecap="round" transform="translate(240 398) rotate(0 6 6)"><path d="M0 0 L12 0 L12 12 L0 12" stroke="none" stroke-width="0" fill="#f59e0b"></path><path d="M0 0 C2.4 0, 4.8 0, 12 0 M0 0 C3.26 0, 6.53 0, 12 0 M12 0 C12 2.82, 12 5.64, 12 12 M12 0 C12 4.5, 12 9.01, 12 12 M12 12 C7.66 12, 3.32 12, 0 12 M12 12 C9.11 12, 6.22 12, 0 12 M0 12 C0 7.91, 0 3.82, 0 0 M0 12 C0 7.78, 0 3.56, 0 0" stroke="#f59e0b" stroke-width="1" fill="none"></path></g><g transform="translate(257 399) rotate(0 30 6)"><text x="0" y="8.16015625" font-family="Helvetica, Segoe UI Emoji" font-size="8px" fill="#1e1e1e" text-anchor="start" style="white-space: pre;" direction="ltr" dominant-baseline="alphabetic">Agent Core</text></g><g stroke-linecap="round" transform="translate(330 398) rotate(0 6 6)"><path d="M0 0 L12 0 L12 12 L0 12" stroke="none" stroke-width="0" fill="#10b981"></path><path d="M0 0 C2.4 0, 4.8 0, 12 0 M0 0 C3.26 0, 6.53 0, 12 0 M12 0 C12 2.82, 12 5.64, 12 12 M12 0 C12 4.5, 12 9.01, 12 12 M12 12 C7.66 12, 3.32 12, 0 12 M12 12 C9.11 12, 6.22 12, 0 12 M0 12 C0 7.91, 0 3.82, 0 0 M0 12 C0 7.78, 0 3.56, 0 0" stroke="#10b981" stroke-width="1" fill="none"></path></g><g transform="translate(347 399) rotate(0 35 6)"><text x="0" y="8.16015625" font-family="Helvetica, Segoe UI Emoji" font-size="8px" fill="#1e1e1e" text-anchor="start" style="white-space: pre;" direction="ltr" dominant-baseline="alphabetic">Measurement</text></g><g stroke-linecap="round" transform="translate(430 398) rotate(0 6 6)"><path d="M0 0 L12 0 L12 12 L0 12" stroke="none" stroke-width="0" fill="#0ea5e9"></path><path d="M0 0 C2.4 0, 4.8 0, 12 0 M0 0 C3.26 0, 6.53 0, 12 0 M12 0 C12 2.82, 12 5.64, 12 12 M12 0 C12 4.5, 12 9.01, 12 12 M12 12 C7.66 12, 3.32 12, 0 12 M12 12 C9.11 12, 6.22 12, 0 12 M0 12 C0 7.91, 0 3.82, 0 0 M0 12 C0 7.78, 0 3.56, 0 0" stroke="#0ea5e9" stroke-width="1" fill="none"></path></g><g transform="translate(447 399) rotate(0 30 6)"><text x="0" y="8.16015625" font-family="Helvetica, Segoe UI Emoji" font-size="8px" fill="#1e1e1e" text-anchor="start" style="white-space: pre;" direction="ltr" dominant-baseline="alphabetic">Integration</text></g><g stroke-linecap="round" transform="translate(520 398) rotate(0 6 6)"><path d="M0 0 L12 0 L12 12 L0 12" stroke="none" stroke-width="0" fill="#ec4899"></path><path d="M0 0 C2.4 0, 4.8 0, 12 0 M0 0 C3.26 0, 6.53 0, 12 0 M12 0 C12 2.82, 12 5.64, 12 12 M12 0 C12 4.5, 12 9.01, 12 12 M12 12 C7.66 12, 3.32 12, 0 12 M12 12 C9.11 12, 6.22 12, 0 12 M0 12 C0 7.91, 0 3.82, 0 0 M0 12 C0 7.78, 0 3.56, 0 0" stroke="#ec4899" stroke-width="1" fill="none"></path></g><g transform="translate(537 399) rotate(0 35 6)"><text x="0" y="8.16015625" font-family="Helvetica, Segoe UI Emoji" font-size="8px" fill="#1e1e1e" text-anchor="start" style="white-space: pre;" direction="ltr" dominant-baseline="alphabetic">Pilot Execution</text></g><g stroke-linecap="round" transform="translate(620 398) rotate(0 5 5)"><path d="M10 5 C10 5.29, 9.97 5.58, 9.92 5.87 C9.87 6.15, 9.8 6.44, 9.7 6.71 C9.6 6.98, 9.47 7.25, 9.33 7.5 C9.19 7.75, 9.02 7.99, 8.83 8.21 C8.64 8.44, 8.44 8.64, 8.21 8.83 C7.99 9.02, 7.75 9.19, 7.5 9.33 C7.25 9.47, 6.98 9.6, 6.71 9.7 C6.44 9.8, 6.15 9.87, 5.87 9.92 C5.58 9.97, 5.29 10, 5 10 C4.71 10, 4.42 9.97, 4.13 9.92 C3.85 9.87, 3.56 9.8, 3.29 9.7 C3.02 9.6, 2.75 9.47, 2.5 9.33 C2.25 9.19, 2.01 9.02, 1.79 8.83 C1.56 8.64, 1.36 8.44, 1.17 8.21 C0.98 7.99, 0.81 7.75, 0.67 7.5 C0.53 7.25, 0.4 6.98, 0.3 6.71 C0.2 6.44, 0.13 6.15, 0.08 5.87 C0.03 5.58, 0 5.29, 0 5 C0 4.71, 0.03 4.42, 0.08 4.13 C0.13 3.85, 0.2 3.56, 0.3 3.29 C0.4 3.02, 0.53 2.75, 0.67 2.5 C0.81 2.25, 0.98 2.01, 1.17 1.79 C1.36 1.56, 1.56 1.36, 1.79 1.17 C2.01 0.98, 2.25 0.81, 2.5 0.67 C2.75 0.53, 3.02 0.4, 3.29 0.3 C3.56 0.2, 3.85 0.13, 4.13 0.08 C4.42 0.03, 4.71 0, 5 0 C5.29 0, 5.58 0.03, 5.87 0.08 C6.15 0.13, 6.44 0.2, 6.71 0.3 C6.98 0.4, 7.25 0.53, 7.5 0.67 C7.75 0.81, 7.99 0.98, 8.21 1.17 C8.44 1.36, 8.64 1.56, 8.83 1.79 C9.02 2.01, 9.19 2.25, 9.33 2.5 C9.47 2.75, 9.6 3.02, 9.7 3.29 C9.8 3.56, 9.87 3.85, 9.92 4.13 C9.97 4.42, 9.99 4.86, 10 5 C10.01 5.14, 10.01 4.86, 10 5" stroke="none" stroke-width="0" fill="#dc2626"></path><path d="M10 5 C10 5.29, 9.97 5.58, 9.92 5.87 C9.87 6.15, 9.8 6.44, 9.7 6.71 C9.6 6.98, 9.47 7.25, 9.33 7.5 C9.19 7.75, 9.02 7.99, 8.83 8.21 C8.64 8.44, 8.44 8.64, 8.21 8.83 C7.99 9.02, 7.75 9.19, 7.5 9.33 C7.25 9.47, 6.98 9.6, 6.71 9.7 C6.44 9.8, 6.15 9.87, 5.87 9.92 C5.58 9.97, 5.29 10, 5 10 C4.71 10, 4.42 9.97, 4.13 9.92 C3.85 9.87, 3.56 9.8, 3.29 9.7 C3.02 9.6, 2.75 9.47, 2.5 9.33 C2.25 9.19, 2.01 9.02, 1.79 8.83 C1.56 8.64, 1.36 8.44, 1.17 8.21 C0.98 7.99, 0.81 7.75, 0.67 7.5 C0.53 7.25, 0.4 6.98, 0.3 6.71 C0.2 6.44, 0.13 6.15, 0.08 5.87 C0.03 5.58, 0 5.29, 0 5 C0 4.71, 0.03 4.42, 0.08 4.13 C0.13 3.85, 0.2 3.56, 0.3 3.29 C0.4 3.02, 0.53 2.75, 0.67 2.5 C0.81 2.25, 0.98 2.01, 1.17 1.79 C1.36 1.56, 1.56 1.36, 1.79 1.17 C2.01 0.98, 2.25 0.81, 2.5 0.67 C2.75 0.53, 3.02 0.4, 3.29 0.3 C3.56 0.2, 3.85 0.13, 4.13 0.08 C4.42 0.03, 4.71 0, 5 0 C5.29 0, 5.58 0.03, 5.87 0.08 C6.15 0.13, 6.44 0.2, 6.71 0.3 C6.98 0.4, 7.25 0.53, 7.5 0.67 C7.75 0.81, 7.99 0.98, 8.21 1.17 C8.44 1.36, 8.64 1.56, 8.83 1.79 C9.02 2.01, 9.19 2.25, 9.33 2.5 C9.47 2.75, 9.6 3.02, 9.7 3.29 C9.8 3.56, 9.87 3.85, 9.92 4.13 C9.97 4.42, 9.99 4.86, 10 5 C10.01 5.14, 10.01 4.86, 10 5" stroke="#dc2626" stroke-width="1" fill="none"></path></g><g transform="translate(635 399) rotate(0 25 6)"><text x="0" y="8.16015625" font-family="Helvetica, Segoe UI Emoji" font-size="8px" fill="#1e1e1e" text-anchor="start" style="white-space: pre;" direction="ltr" dominant-baseline="alphabetic">Milestone</text></g><g stroke-linecap="round" transform="translate(695 393) rotate(0 110 12.5)"><path d="M6.25 0 C51.9 0, 97.54 0, 213.75 0 C217.92 0, 220 2.08, 220 6.25 C220 10.32, 220 14.38, 220 18.75 C220 22.92, 217.92 25, 213.75 25 C144.15 25, 74.55 25, 6.25 25 C2.08 25, 0 22.92, 0 18.75 C0 15.71, 0 12.67, 0 6.25 C0 2.08, 2.08 0, 6.25 0" stroke="none" stroke-width="0" fill="#fef3c7"></path><path d="M6.25 0 C47.75 0, 89.25 0, 213.75 0 M6.25 0 C62.69 0, 119.13 0, 213.75 0 M213.75 0 C217.92 0, 220 2.08, 220 6.25 M213.75 0 C217.92 0, 220 2.08, 220 6.25 M220 6.25 C220 8.97, 220 11.69, 220 18.75 M220 6.25 C220 11.12, 220 15.99, 220 18.75 M220 18.75 C220 22.92, 217.92 25, 213.75 25 M220 18.75 C220 22.92, 217.92 25, 213.75 25 M213.75 25 C169 25, 124.25 25, 6.25 25 M213.75 25 C168.97 25, 124.18 25, 6.25 25 M6.25 25 C2.08 25, 0 22.92, 0 18.75 M6.25 25 C2.08 25, 0 22.92, 0 18.75 M0 18.75 C0 15.16, 0 11.58, 0 6.25 M0 18.75 C0 15.29, 0 11.84, 0 6.25 M0 6.25 C0 2.08, 2.08 0, 6.25 0 M0 6.25 C0 2.08, 2.08 0, 6.25 0" stroke="#9ca3af" stroke-width="1" fill="none"></path></g><g transform="translate(703 397) rotate(0 105 8)"><text x="0" y="10.43017578125" font-family="Helvetica, Segoe UI Emoji" font-size="9px" fill="#92400e" text-anchor="start" style="white-space: pre;" direction="ltr" dominant-baseline="alphabetic">Pilot requires 3+ Profound scan cycles</text></g></svg>